{"title":"Beck: The Movie (Beck: Live Action) 480p [Cursator]","uid":7905681,"size":598095925,"categoryP":"video","categoryS":"movies","magnet":"?xt=urn:btih:c0a63cb5e61555d1bc41b0c4e3914dde589b4b8e&amp;dn=Beck%3A+The+Movie+%28Beck%3A+Live+Action%29+480p+%5BCursator%5D&amp;tr=udp%3A%2F%2Ftracker.openbittorrent.com%3A80&amp;tr=udp%3A%2F%2Fopen.demonii.com%3A1337&amp;tr=udp%3A%2F%2Ftracker.coppersurfer.tk%3A6969&amp;tr=udp%3A%2F%2Fexodus.desync.com%3A6969","seeders":4,"leechers":1,"uploader":"Cursator","files":-1,"time":1355088617,"description":"Beck The Movie! (Beck Live Action) at 480p Video Quality :)\n\nPlease seed after you download.\n\n--------------------------------------------------------------------------------\n\nCover\n------\n  &lt;a href=&quot;\nhttp://img404.imageshack.us/img404/6117/beckcursator.jpg&quot; rel=&quot;nofollow&quot; target=&quot;_NEW&quot;&gt;\nhttp://img404.imageshack.us/img404/6117/beckcursator.jpg&lt;/a&gt;\n\n---------------------------------------------------------------------------------\n\nInfo\n---------------------------------------------------------------------------------\n\nTorrent Statistics\n-------------------\n    &lt;a href=&quot;\nhttp://torrent-stats.info/b0c4/167e58ee0.png&quot; rel=&quot;nofollow&quot; target=&quot;_NEW&quot;&gt;\nhttp://torrent-stats.info/b0c4/167e58ee0.png&lt;/a&gt;\n\n---------------------------------------------------------------------------------\n\nGeneral\n--------\n\nFormat                                   : WebM\nFormat version                           : Version 2\nFile size                                : 569 MiB\nDuration                                 : 2h 26mn\nOverall bit rate mode                    : Variable\nOverall bit rate                         : 543 Kbps\nWriting application                      : google\nWriting library                          : google\n\n\nVideo\n---------------------------------------\n\nID                                       : 1\nFormat                                   : VP8\nCodec ID                                 : V_VP8\nDuration                                 : 2h 26mn\nBit rate                                 : 384 Kbps\nWidth                                    : 640 pixels\nHeight                                   : 284 pixels\nDisplay aspect ratio                     : 2.25:1\nFrame rate mode                          : Constant\nFrame rate                               : 23.976 fps\nCompression mode                         : Lossy\nBits/(Pixel*Frame)                       : 0.088\nStream size                              : 403 MiB (71%)\nLanguage                                 : English\nDefault                                  : Yes\nForced                                   : No\n\nAudio\n----------------------------------\n\nID                                       : 2\nFormat                                   : Vorbis\nFormat settings, Floor                   : 1\nCodec ID                                 : A_VORBIS\nDuration                                 : 2h 26mn\nBit rate mode                            : Variable\nBit rate                                 : 128 Kbps\nChannel(s)                               : 2 channels\nSampling rate                            : 44.1 KHz\nCompression mode                         : Lossy\nStream size                              : 134 MiB (24%)\nDefault                                  : Yes\nForced                                   : No\n\n\n----------------------------------------------------------------------------------\n\nScreenshots\n----------------------------------------------------------------------------------\n                   &lt;a href=&quot;\nhttp://img29.imageshack.us/img29/7103/beck1.png&quot; rel=&quot;nofollow&quot; target=&quot;_NEW&quot;&gt;\nhttp://img29.imageshack.us/img29/7103/beck1.png&lt;/a&gt;\n                   &lt;a href=&quot;\nhttp://img705.imageshack.us/img705/6017/beck2.png&quot; rel=&quot;nofollow&quot; target=&quot;_NEW&quot;&gt;\nhttp://img705.imageshack.us/img705/6017/beck2.png&lt;/a&gt;\n                   &lt;a href=&quot;\nhttp://img803.imageshack.us/img803/2439/beck3.png&quot; rel=&quot;nofollow&quot; target=&quot;_NEW&quot;&gt;\nhttp://img803.imageshack.us/img803/2439/beck3.png&lt;/a&gt;\n                   &lt;a href=&quot;\nhttp://img248.imageshack.us/img248/1/beck4.png&quot; rel=&quot;nofollow&quot; target=&quot;_NEW&quot;&gt;\nhttp://img248.imageshack.us/img248/1/beck4.png&lt;/a&gt;\n                   &lt;a href=&quot;\nhttp://img59.imageshack.us/img59/8705/beck5.png&quot; rel=&quot;nofollow&quot; target=&quot;_NEW&quot;&gt;\nhttp://img59.imageshack.us/img59/8705/beck5.png&lt;/a&gt;\n \n\n----------------------------------------------------------------------------------\n\nStory\n----------------------------------------------------------------------------------\n\nTanaka Yukio, better known by his nickname Koyuki is a 16 year old who feels disconnected from life in general. Through the act of saving a mismatched dog, he meets guitarist Minami Ryuusuke, and becomes involved in Ryuusuke's new band BECK. Koyuki's life starts to change as the band struggles towards fame.\n\n----------------------------------------------------------------------------------\n\nThank you for downloading. \n\nEnjoy Watching :)\t\t\n--------------------------------------------------------------------------------\n\nFacebook and Email\n------------------\n\nFacebook/Cursator (Add .com)\n\n&lt;a class=&quot;__cf_email__&quot; href=&quot;/cdn-cgi/l/email-protection&quot; data-cfemail=&quot;c784b2b5b4a6b3a8b587beaaa6aeabe9a4a8aa&quot;&gt;[email&amp;#160;protected]&lt;/a&gt;&lt;script cf-hash='f9e31' type=&quot;text/javascript&quot;&gt;\n/* &lt;![CDATA[ */!function(){try{var t=&quot;currentScript&quot;in document?document.currentScript:function(){for(var t=document.getElementsByTagName(&quot;script&quot;),e=t.length;e--;)if(t[e].getAttribute(&quot;cf-hash&quot;))return t[e]}();if(t&amp;&amp;t.previousSibling){var e,r,n,i,c=t.previousSibling,a=c.getAttribute(&quot;data-cfemail&quot;);if(a){for(e=&quot;&quot;,r=parseInt(a.substr(0,2),16),n=2;a.length-n;n+=2)i=parseInt(a.substr(n,2),16)^r,e+=String.fromCharCode(i);e=document.createTextNode(e),c.parentNode.replaceChild(e,c)}}}catch(u){}}();/* ]]&gt; */&lt;/script&gt; \n\nThank you :)\t\t\n\t\t\t\t\t\t\t","torrent":{"xt":"urn:btih:c0a63cb5e61555d1bc41b0c4e3914dde589b4b8e","amp;dn":"Beck%3A+The+Movie+%28Beck%3A+Live+Action%29+480p+%5BCursator%5D","amp;tr":["udp%3A%2F%2Ftracker.openbittorrent.com%3A80","udp%3A%2F%2Fopen.demonii.com%3A1337","udp%3A%2F%2Ftracker.coppersurfer.tk%3A6969","udp%3A%2F%2Fexodus.desync.com%3A6969"],"infoHash":"c0a63cb5e61555d1bc41b0c4e3914dde589b4b8e","infoHashBuffer":{"type":"Buffer","data":[192,166,60,181,230,21,85,209,188,65,176,196,227,145,77,222,88,155,75,142]},"announce":[],"urlList":[]}}